<?xml version="1.0" standalone="no"?>
<!DOCTYPE svg PUBLIC "-//W3C//DTD SVG 20010904//EN"
 "http://www.w3.org/TR/2001/REC-SVG-20010904/DTD/svg10.dtd">
<svg version="1.0" xmlns="http://www.w3.org/2000/svg"
 width="160.000000pt" height="160.000000pt" viewBox="0 0 160.000000 160.000000"
 preserveAspectRatio="xMidYMid meet">
<metadata>
Created by potrace 1.11, written by Peter Selinger 2001-2013
</metadata>
<g transform="translate(0.000000,160.000000) scale(0.100000,-0.100000)"
fill="#000000" stroke="none">
<path d="M655 1539 c-16 -5 -36 -7 -43 -4 -7 3 -10 0 -7 -6 4 -6 1 -9 -6 -8
-8 1 -27 -3 -44 -10 -16 -7 -34 -14 -40 -15 -20 -5 -90 -41 -93 -48 -2 -5 -10
-8 -18 -8 -8 0 -14 -5 -14 -11 0 -6 -7 -9 -15 -5 -8 3 -14 2 -12 -2 1 -4 -1
-8 -5 -10 -4 -2 -28 -23 -54 -47 -40 -38 -50 -43 -63 -32 -14 11 -14 10 -2 -6
12 -15 10 -20 -13 -42 -14 -13 -26 -29 -26 -35 0 -6 -6 -8 -13 -4 -6 4 -9 4
-5 -1 4 -4 -2 -21 -13 -36 -25 -36 -90 -175 -94 -203 -2 -12 -6 -33 -9 -48 -3
-16 -8 -39 -10 -53 -3 -13 -7 -29 -11 -35 -3 -5 -1 -10 5 -10 6 0 9 -4 6 -9
-8 -12 -8 -119 -1 -156 14 -74 37 -153 55 -190 10 -22 20 -47 22 -55 2 -8 6
-17 9 -20 3 -3 20 -26 37 -52 18 -25 39 -54 48 -62 8 -9 12 -16 7 -17 -4 0 2
-4 15 -9 12 -5 22 -16 22 -25 0 -8 6 -15 13 -15 7 0 25 -14 40 -31 15 -17 27
-28 27 -25 0 4 15 -4 33 -18 45 -34 178 -95 226 -103 14 -2 32 -8 40 -12 28
-14 252 -10 309 5 30 8 58 12 63 8 5 -3 9 0 9 6 0 7 6 10 14 7 8 -3 16 -3 18
1 6 14 98 53 109 46 7 -4 9 -3 6 4 -4 5 12 21 35 35 56 32 244 217 221 217 -2
0 4 12 15 28 11 15 25 44 32 64 8 20 18 34 23 31 6 -3 7 -1 3 5 -3 6 -1 23 5
39 25 62 38 153 37 263 0 63 -3 120 -7 125 -3 6 -6 15 -8 20 -12 56 -39 133
-52 149 -5 6 -11 20 -13 31 -1 11 -6 22 -9 25 -17 15 -73 107 -71 115 2 6 1 7
-3 4 -8 -8 -103 83 -98 94 2 4 -5 7 -17 7 -12 0 -18 5 -15 10 3 6 2 10 -4 10
-11 0 -113 61 -122 73 -3 5 -9 8 -13 8 -25 -4 -36 0 -30 11 4 6 3 8 -3 5 -12
-8 -84 14 -78 23 2 4 -8 6 -23 4 -14 -1 -31 1 -37 5 -14 11 -252 11 -290 0z"/>
</g>
</svg>
