<?xml version="1.0" encoding="UTF-8"?>
<svg width="279px" height="305px" viewBox="0 0 279 305" version="1.1" xmlns="http://www.w3.org/2000/svg" xmlns:xlink="http://www.w3.org/1999/xlink">
    <!-- Generator: Sketch 52.1 (67048) - http://www.bohemiancoding.com/sketch -->
    <title>baby crying</title>
    <desc>Created with Sketch.</desc>
    <g id="baby-crying" stroke="none" stroke-width="1" fill="none" fill-rule="evenodd">
        <path d="M139.68,304.777 C62.916,304.777 0.686,293.968 0.686,280.635 C0.686,267.302 62.916,256.493 139.68,256.493 C216.444,256.493 278.674,267.302 278.674,280.635 C278.674,293.968 216.444,304.777 139.68,304.777" id="Fill-81" fill="#9B9B9B"></path>
        <path d="M141.811,36.901 C141.811,36.901 141.271,36.108 140.497,34.613 C140.115,33.865 139.674,32.941 139.234,31.851 C138.796,30.761 138.346,29.505 138.028,28.079 C137.711,26.659 137.478,25.061 137.643,23.351 C137.795,21.659 138.4,19.798 139.726,18.372 C140.357,17.69 141.11,17.023 142.028,16.568 C142.488,16.339 143.004,16.168 143.557,16.116 C144.109,16.057 144.696,16.146 145.22,16.375 C146.283,16.837 147.002,17.775 147.399,18.763 C147.789,19.762 147.922,20.885 147.584,21.986 C147.416,22.531 147.092,23.064 146.627,23.456 C146.161,23.85 145.592,24.085 145.018,24.157 C144.814,24.196 144.472,24.211 144.178,24.195 L143.753,24.141 L143.341,24.035 C142.801,23.863 142.32,23.573 141.909,23.234 C141.083,22.552 140.524,21.681 140.105,20.8 C139.686,19.915 139.395,19.001 139.203,18.088 C138.811,16.263 138.791,14.449 139.024,12.769 C139.143,11.93 139.324,11.12 139.58,10.363 C139.828,9.602 140.175,8.917 140.332,8.276 C140.693,6.952 140.591,5.652 140.148,4.62 C139.713,3.582 139.025,2.819 138.412,2.273 C137.789,1.729 137.239,1.366 136.852,1.143 C136.464,0.918 136.243,0.824 136.243,0.824 C136.243,0.824 136.472,0.897 136.882,1.085 C137.288,1.277 137.887,1.573 138.561,2.092 C139.229,2.608 140.004,3.344 140.555,4.433 C141.113,5.508 141.345,6.965 141.009,8.437 C140.854,9.202 140.547,9.877 140.358,10.6 C140.163,11.323 140.013,12.086 139.935,12.879 C139.776,14.464 139.878,16.167 140.27,17.846 C140.667,19.501 141.408,21.23 142.672,22.305 C143.306,22.826 144.058,23.091 144.845,22.945 C145.605,22.845 146.174,22.346 146.403,21.606 C146.879,20.128 146.116,18.076 144.741,17.47 C144.063,17.165 143.26,17.243 142.521,17.596 C141.771,17.948 141.111,18.487 140.514,19.105 C139.355,20.308 138.737,21.891 138.542,23.453 C138.342,25.019 138.465,26.555 138.707,27.943 C139.206,30.73 140.061,32.98 140.709,34.514 C141.359,36.054 141.811,36.901 141.811,36.901" id="Fill-82" fill="#515251"></path>
        <path d="M198.624,225.907 C198.624,225.907 221.884,215.922 234.319,237.92 C246.753,259.917 238.88,279.581 228.513,281.505 C218.146,283.43 206.949,275.7 209.023,265.333 C209.023,265.333 203.003,285.154 162.885,280.842 C122.768,276.529 187.569,226.876 198.624,225.907" id="Fill-83" fill="#F2C99A"></path>
        <path d="M193.161,189.445 C193.575,171.198 176.988,149.635 176.988,149.635 L101.204,149.635 C101.204,149.635 84.616,171.198 85.031,189.445 C85.446,207.691 78.811,203.339 79.64,220.651 C80.469,237.963 132.202,237.92 139.096,237.92 C145.99,237.92 197.722,237.963 198.552,220.651 C199.381,203.339 192.746,207.691 193.161,189.445" id="Fill-84" fill="#F4DAAD"></path>
        <path d="M220.834,235.405 C220.834,235.405 222.801,233.327 222.871,230.604 C222.942,227.881 219.679,222.471 224.466,217.773 C228.699,213.617 235.863,218.328 234.691,224.415 C233.646,229.84 232.265,230.485 231.454,233.145 C230.825,235.207 220.834,235.405 220.834,235.405" id="Fill-85" fill="#F4DAAD"></path>
        <path d="M220.042,288.64 C206.356,282.964 212.053,267.646 213.86,258.871 C215.668,250.096 213.495,240.15 222.855,233.987 C232.216,227.823 257.533,238.178 254.707,253.564 C252.201,267.208 243.38,272.691 240.302,279.093 C237.224,285.495 228.469,292.135 220.042,288.64" id="Fill-86" fill="#F4DAAD"></path>
        <path d="M231.885,233.355 C231.885,233.355 234.226,233.29 234.581,230.285 C234.936,227.28 234.8,221.535 239.766,221.766 C244.732,221.997 244.545,228.028 242.366,230.921 C240.187,233.814 240.092,235.36 240.477,236.152 C240.862,236.943 234.106,236.471 231.885,233.355" id="Fill-87" fill="#F4DAAD"></path>
        <path d="M238.857,236.602 C238.857,236.602 241.146,237.098 242.209,234.265 C243.273,231.432 244.515,225.822 249.281,227.234 C254.047,228.646 252.423,234.456 249.616,236.745 C246.808,239.033 246.346,240.511 246.53,241.372 C246.715,242.233 240.268,240.157 238.857,236.602" id="Fill-88" fill="#F4DAAD"></path>
        <path d="M244.635,240.822 C244.635,240.822 246.692,241.94 248.507,239.519 C250.322,237.098 253.086,232.06 257.266,234.751 C261.445,237.442 258.259,242.565 254.922,243.974 C251.586,245.384 250.728,246.674 250.664,247.552 C250.599,248.43 244.992,244.631 244.635,240.822" id="Fill-89" fill="#F4DAAD"></path>
        <path d="M249.306,246.361 C249.306,246.361 250.787,247.839 253.045,246.193 C255.303,244.548 259.12,240.873 262.01,244.24 C264.899,247.606 260.69,251.25 257.389,251.642 C254.088,252.034 252.98,252.938 252.679,253.682 C252.377,254.426 248.553,249.746 249.306,246.361" id="Fill-90" fill="#F4DAAD"></path>
        <path d="M233.261,238.947 C225.794,237.409 220.476,242.732 219.403,248.579 C218.331,254.427 223.767,256.206 222.982,260.662 C222.197,265.118 218.032,266.766 217.291,272.286 C216.55,277.807 219.129,283.219 224.243,284.008 C229.358,284.798 235.917,276.651 239.938,269.299 C243.958,261.948 247.145,256.26 247.391,251.046 C247.638,245.832 241.681,240.681 233.261,238.947" id="Fill-91" fill="#F5E1BC"></path>
        <path d="M228.246,217.815 C226.365,217.794 223.606,220.487 223.982,223.467 C224.358,226.447 227.653,227.099 230.009,226.872 C232.364,226.645 233.295,223.406 233.05,222.036 C232.804,220.667 232.027,217.857 228.246,217.815" id="Fill-92" fill="#F5E1BC"></path>
        <path d="M240.45,223.627 C238.831,223.126 236.619,224.883 236.771,227.025 C236.924,229.167 240.531,229.91 241.387,228.635 C242.243,227.36 243.003,224.416 240.45,223.627" id="Fill-93" fill="#F5E1BC"></path>
        <path d="M249.285,229.011 C247.78,228.231 245.291,229.567 245.061,231.702 C244.831,233.837 248.248,235.209 249.317,234.106 C250.386,233.004 251.656,230.242 249.285,229.011" id="Fill-94" fill="#F5E1BC"></path>
        <path d="M255.828,235.676 C254.323,234.895 251.834,236.231 251.604,238.367 C251.374,240.502 254.791,241.873 255.86,240.771 C256.929,239.668 258.199,236.906 255.828,235.676" id="Fill-95" fill="#F5E1BC"></path>
        <path d="M260.712,245.088 C259.523,243.881 256.743,244.382 255.864,246.342 C254.985,248.301 257.811,250.662 259.169,249.944 C260.526,249.225 262.588,246.991 260.712,245.088" id="Fill-96" fill="#F5E1BC"></path>
        <path d="M79.682,224.741 C79.682,224.741 56.422,214.756 43.987,236.754 C31.553,258.752 39.426,278.416 49.793,280.34 C60.16,282.264 71.357,274.534 69.283,264.167 C69.283,264.167 75.303,283.988 115.421,279.676 C155.538,275.364 90.737,225.711 79.682,224.741" id="Fill-97" fill="#F2C99A"></path>
        <path d="M198.274,222.428 C176.017,233.432 139.096,232.005 139.096,232.005 C139.096,232.005 102.175,233.432 79.918,222.428 C79.918,222.428 74.52,233.88 79.568,244.63 C84.616,255.38 107.424,279.432 117.377,281.505 C127.329,283.579 133.86,283.579 139.096,283.579 C144.331,283.579 150.863,283.579 160.815,281.505 C170.768,279.432 193.576,255.38 198.624,244.63 C203.672,233.88 198.274,222.428 198.274,222.428" id="Fill-98" fill="#F3F3F1"></path>
        <path d="M200.127,240.287 C202.313,231.009 198.274,222.428 198.274,222.428 C176.017,233.432 139.096,232.005 139.096,232.005 C139.096,232.005 102.175,233.432 79.918,222.428 C79.918,222.428 75.917,230.929 78.036,240.157 C86.837,243.2 106.693,248.318 140.743,248.318 C174.31,248.318 192.262,243.343 200.127,240.287" id="Fill-99" fill="#FFFFFE"></path>
        <path d="M84.273,224.357 C83.666,224.116 83.068,223.866 82.477,223.609 C81.466,226.25 79.468,232.86 80.859,241.078 C81.482,241.27 82.145,241.467 82.843,241.667 C82.323,237.998 82.081,231.813 84.273,224.357" id="Fill-100" fill="#F3F3F1"></path>
        <path d="M89.095,226.076 C88.447,225.869 87.806,225.654 87.17,225.433 C86.088,228.785 84.714,235.075 86.228,242.58 C86.853,242.739 87.492,242.899 88.163,243.059 C87.593,239.747 87.109,233.626 89.095,226.076" id="Fill-101" fill="#F3F3F1"></path>
        <path d="M94.57,227.636 C93.906,227.468 93.245,227.294 92.588,227.113 C91.533,230.609 90.366,236.7 91.857,243.885 C92.48,244.017 93.118,244.147 93.773,244.277 C93.208,241.053 92.698,235.061 94.57,227.636" id="Fill-102" fill="#F3F3F1"></path>
        <path d="M100.389,228.944 C99.714,228.81 99.039,228.671 98.365,228.525 C97.336,232.074 96.28,238.026 97.74,245.013 C98.361,245.121 98.995,245.227 99.641,245.332 C99.084,242.134 98.59,236.242 100.389,228.944" id="Fill-103" fill="#F3F3F1"></path>
        <path d="M106.764,230.052 C106.097,229.952 105.428,229.848 104.758,229.737 C103.721,232.913 102.388,238.82 103.592,245.931 C104.228,246.021 104.876,246.109 105.532,246.195 C105.064,242.637 104.888,236.919 106.764,230.052" id="Fill-104" fill="#F3F3F1"></path>
        <path d="M113.092,230.878 C112.422,230.803 111.748,230.724 111.068,230.641 C110.037,233.778 108.697,239.643 109.859,246.719 C110.495,246.79 111.142,246.859 111.796,246.926 C111.347,243.33 111.217,237.659 113.092,230.878" id="Fill-105" fill="#F3F3F1"></path>
        <path d="M119.969,231.511 C119.301,231.461 118.623,231.408 117.937,231.35 C116.912,234.377 115.495,240.244 116.598,247.37 C117.238,247.423 117.884,247.474 118.54,247.523 C118.12,243.856 118.063,238.212 119.969,231.511" id="Fill-106" fill="#F3F3F1"></path>
        <path d="M126.478,231.886 C125.81,231.858 125.124,231.826 124.419,231.79 C123.391,234.904 122.039,240.758 123.182,247.832 C123.816,247.868 124.462,247.901 125.108,247.933 C124.674,244.296 124.582,238.631 126.478,231.886" id="Fill-107" fill="#F3F3F1"></path>
        <path d="M133.104,232.057 C132.457,232.051 131.763,232.041 131.031,232.027 C130.001,235.101 128.604,240.992 129.745,248.129 C130.383,248.151 131.02,248.174 131.67,248.192 C131.242,244.518 131.172,238.824 133.104,232.057" id="Fill-108" fill="#F3F3F1"></path>
        <path d="M139.612,232.021 C139.278,232.012 139.096,232.005 139.096,232.005 C139.096,232.005 138.466,232.029 137.331,232.047 C136.618,234.975 135.547,240.959 136.327,248.285 C137.048,248.295 137.774,248.302 138.508,248.307 C138.224,244.551 138.215,238.811 139.612,232.021" id="Fill-109" fill="#F3F3F1"></path>
        <path d="M194.516,242.188 C195.207,241.983 195.857,241.78 196.474,241.58 C198.141,233.59 196.517,226.954 195.417,223.738 C194.805,223.999 194.185,224.252 193.558,224.497 C195.722,232.479 195.121,238.903 194.516,242.188" id="Fill-110" fill="#F3F3F1"></path>
        <path d="M188.846,243.689 C189.504,243.534 190.144,243.378 190.758,243.221 C192.458,235.68 191.201,229.289 190.111,225.743 C189.467,225.959 188.819,226.168 188.165,226.369 C190.173,234.323 189.452,240.638 188.846,243.689" id="Fill-111" fill="#F3F3F1"></path>
        <path d="M182.937,244.937 C183.58,244.816 184.21,244.693 184.821,244.57 C186.516,237.328 185.469,231.12 184.418,227.431 C183.751,227.606 183.081,227.773 182.409,227.935 C184.302,235.808 183.537,242.016 182.937,244.937" id="Fill-112" fill="#F3F3F1"></path>
        <path d="M177.059,245.924 C177.709,245.827 178.345,245.728 178.969,245.628 C180.41,238.375 179.161,232.273 178.105,228.884 C177.438,229.018 176.769,229.148 176.101,229.271 C178.01,236.583 177.608,242.548 177.059,245.924" id="Fill-113" fill="#F3F3F1"></path>
        <path d="M170.786,246.748 C171.429,246.675 172.063,246.599 172.685,246.522 C174.087,239.403 172.902,233.397 171.859,229.987 C171.179,230.091 170.5,230.192 169.824,230.286 C171.691,237.477 171.323,243.362 170.786,246.748" id="Fill-114" fill="#F3F3F1"></path>
        <path d="M164.04,247.412 C164.68,247.359 165.316,247.304 165.939,247.247 C167.281,240.19 166.091,234.249 165.056,230.883 C164.364,230.959 163.68,231.03 163.001,231.098 C164.856,238.156 164.555,243.965 164.04,247.412" id="Fill-115" fill="#F3F3F1"></path>
        <path d="M157.456,247.868 C158.091,247.833 158.715,247.794 159.336,247.755 C160.713,240.828 159.637,234.949 158.617,231.481 C157.91,231.534 157.214,231.583 156.531,231.628 C158.338,238.705 157.984,244.5 157.456,247.868" id="Fill-116" fill="#F3F3F1"></path>
        <path d="M150.892,248.155 C151.52,248.135 152.15,248.115 152.765,248.091 C154.133,241.198 153.073,235.344 152.057,231.872 C151.333,231.903 150.631,231.93 149.952,231.953 C151.756,238.999 151.416,244.775 150.892,248.155" id="Fill-117" fill="#F3F3F1"></path>
        <path d="M146.249,248.27 C147.181,241.334 146.41,235.466 145.701,232.05 C144.86,232.061 144.087,232.065 143.388,232.065 C144.664,239.075 144.462,244.85 144.105,248.3 C144.829,248.292 145.541,248.282 146.249,248.27" id="Fill-118" fill="#F3F3F1"></path>
        <path d="M53.722,232.992 C53.722,232.992 51.245,231.56 50.402,228.969 C49.559,226.379 51.146,220.264 45.22,217.123 C39.979,214.345 34.453,220.9 37.31,226.402 C39.856,231.305 41.363,231.53 42.898,233.849 C44.088,235.647 53.722,232.992 53.722,232.992" id="Fill-119" fill="#F4DAAD"></path>
        <path d="M69.638,283.798 C81.142,274.461 71.319,261.398 67.088,253.501 C62.857,245.604 62.109,235.451 51.38,232.208 C40.652,228.965 19.332,246.099 26.421,260.043 C32.708,272.409 42.725,275.153 47.498,280.414 C52.271,285.675 62.555,289.547 69.638,283.798" id="Fill-120" fill="#F4DAAD"></path>
        <path d="M42.544,234.173 C42.544,234.173 40.282,234.777 39.086,231.998 C37.89,229.218 36.384,223.672 31.69,225.308 C26.996,226.943 28.892,232.67 31.804,234.824 C34.717,236.977 35.248,238.431 35.104,239.3 C34.961,240.169 41.303,237.792 42.544,234.173" id="Fill-121" fill="#F4DAAD"></path>
        <path d="M36.785,239.27 C36.785,239.27 34.733,240.398 32.907,237.985 C31.081,235.572 28.293,230.547 24.126,233.258 C19.959,235.968 23.17,241.076 26.513,242.47 C29.856,243.864 30.719,245.15 30.788,246.028 C30.856,246.905 36.446,243.08 36.785,239.27" id="Fill-122" fill="#F4DAAD"></path>
        <path d="M32.449,244.961 C32.449,244.961 30.794,246.619 28.365,244.814 C25.936,243.01 21.852,238.968 18.612,242.737 C15.371,246.507 19.885,250.51 23.484,250.912 C27.084,251.313 28.273,252.305 28.585,253.128 C28.897,253.952 33.19,248.714 32.449,244.961" id="Fill-123" fill="#F4DAAD"></path>
        <path d="M29.547,251.6 C29.547,251.6 28.549,253.439 25.916,252.505 C23.283,251.57 18.577,249.134 16.766,253.184 C14.954,257.234 20.026,259.528 23.303,258.964 C26.579,258.401 27.898,258.951 28.399,259.579 C28.9,260.206 31.233,254.631 29.547,251.6" id="Fill-124" fill="#F4DAAD"></path>
        <path d="M42.818,239.925 C49.538,236.325 56.151,239.913 58.844,245.213 C61.537,250.513 56.833,253.767 58.854,257.815 C60.874,261.863 65.337,262.257 67.619,267.338 C69.901,272.418 68.97,278.341 64.292,280.554 C59.614,282.767 51.006,276.824 45.059,270.922 C39.112,265.02 34.438,260.474 32.717,255.546 C30.996,250.618 35.24,243.985 42.818,239.925" id="Fill-125" fill="#F5E1BC"></path>
        <path d="M41.608,218.24 C43.406,217.684 46.817,219.481 47.305,222.444 C47.793,225.407 44.82,226.971 42.497,227.424 C40.175,227.877 38.36,225.037 38.206,223.654 C38.051,222.271 37.996,219.357 41.608,218.24" id="Fill-126" fill="#F5E1BC"></path>
        <path d="M31.564,227.286 C32.974,226.345 35.594,227.399 36.058,229.496 C36.522,231.593 33.276,233.332 32.092,232.354 C30.908,231.375 29.342,228.769 31.564,227.286" id="Fill-127" fill="#F5E1BC"></path>
        <path d="M24.628,234.963 C25.848,233.786 28.614,234.358 29.443,236.34 C30.272,238.321 27.386,240.609 26.048,239.856 C24.709,239.104 22.705,236.818 24.628,234.963" id="Fill-128" fill="#F5E1BC"></path>
        <path d="M20.254,243.214 C21.474,242.038 24.24,242.61 25.069,244.591 C25.897,246.573 23.012,248.86 21.673,248.108 C20.334,247.355 18.33,245.069 20.254,243.214" id="Fill-129" fill="#F5E1BC"></path>
        <path d="M18.251,253.628 C19.048,252.132 21.855,251.821 23.255,253.449 C24.656,255.077 22.619,258.145 21.113,257.843 C19.607,257.541 16.995,255.986 18.251,253.628" id="Fill-130" fill="#F5E1BC"></path>
        <path d="M202.088,109.624 C197.428,99.419 197.216,100.898 198.623,76.414 C200.662,40.958 164.058,30.694 139.096,30.694 C114.134,30.694 77.53,40.958 79.568,76.414 C80.976,100.898 80.763,99.419 76.104,109.624 C71.444,119.829 68.858,162.594 139.096,162.594 C209.334,162.594 206.747,119.829 202.088,109.624" id="Fill-131" fill="#F4DAAD"></path>
        <path d="M131.215,92.757 C131.215,92.757 133.91,76.584 148.01,90.891 C148.01,90.891 136.606,81.56 131.215,92.757" id="Fill-132" fill="#E9A27D"></path>
        <path d="M180.885,102.496 C169.926,96.369 158.76,102.483 139.796,102.495 C120.831,102.483 109.665,96.369 98.706,102.496 C87.736,108.629 82.805,128.867 94.776,141.132 C106.708,153.357 128.653,153.956 139.74,153.96 L139.852,153.96 C150.938,153.956 172.883,153.357 184.815,141.132 C196.787,128.867 191.855,108.629 180.885,102.496" id="Fill-133" fill="#DF716B"></path>
        <path d="M102.914,84.787 C102.755,84.787 102.596,84.747 102.45,84.661 C102.013,84.405 101.864,83.843 102.119,83.405 C102.25,83.183 105.36,77.946 110.955,76.905 C114.496,76.24 118.173,77.418 121.887,80.39 C122.284,80.708 122.348,81.286 122.031,81.683 C121.714,82.079 121.136,82.146 120.738,81.827 C117.464,79.208 114.284,78.159 111.305,78.711 C106.543,79.59 103.736,84.286 103.709,84.332 C103.537,84.624 103.23,84.787 102.914,84.787" id="Fill-134" fill="#515251"></path>
        <path d="M102.914,68.69 C102.914,68.69 116.713,73.749 121.313,62.94 C121.313,62.94 112.573,69.515 102.914,68.69" id="Fill-135" fill="#515251"></path>
        <path d="M176.639,84.787 C176.323,84.787 176.015,84.624 175.844,84.332 C175.816,84.286 173.01,79.59 168.247,78.711 C165.268,78.16 162.088,79.208 158.815,81.827 C158.417,82.145 157.839,82.079 157.521,81.683 C157.204,81.286 157.269,80.708 157.665,80.39 C161.38,77.419 165.056,76.241 168.598,76.905 C174.193,77.946 177.303,83.183 177.433,83.405 C177.688,83.843 177.54,84.405 177.102,84.661 C176.956,84.747 176.797,84.787 176.639,84.787" id="Fill-136" fill="#515251"></path>
        <path d="M176.638,68.69 C176.638,68.69 162.84,73.749 158.24,62.94 C158.24,62.94 166.979,69.515 176.638,68.69" id="Fill-137" fill="#515251"></path>
        <path d="M165.333,109.855 C155.805,103.416 144.732,108.935 145.505,111.925 C146.277,114.915 148.595,121.584 140.743,121.584 C132.892,121.584 135.209,114.915 135.982,111.925 C136.754,108.935 125.681,103.416 116.153,109.855 C106.625,116.295 100.445,128.253 108.685,139.062 C116.926,149.871 134.689,149.635 140.743,149.635 C146.797,149.635 164.561,149.871 172.801,139.062 C181.042,128.253 174.861,116.295 165.333,109.855" id="Fill-138" fill="#DA4F60"></path>
        <path d="M161.784,135.708 C160.47,124.557 145.685,124.209 142.926,126.84 C140.986,128.69 140.696,132.314 140.694,134.308 C140.557,132.314 140.041,128.69 138.101,126.84 C135.341,124.209 121.017,124.557 119.703,135.708 C119.034,141.383 119.29,147.413 120.576,152.668 C127.881,153.84 134.861,153.958 139.74,153.959 L139.74,153.96 L139.852,153.96 L139.852,153.959 C145.17,153.958 152.987,153.815 160.998,152.322 C162.211,147.15 162.438,141.258 161.784,135.708" id="Fill-139" fill="#DF6B69"></path>
        <path d="M124.223,114.225 C126.372,116.065 134.881,116.985 137.181,116.525 C138.886,116.184 139.115,107.144 139.12,102.488 C133.446,102.441 128.471,101.861 123.995,101.246 C123.506,104.629 122.528,112.774 124.223,114.225" id="Fill-140" fill="#E5E6E3"></path>
        <path d="M97.035,154.864 C84.566,148.87 78.434,140.216 75.791,131.937 C79.357,133.034 87.459,136.258 89.883,143.432 C89.883,143.432 96.979,147.443 97.035,154.864" id="Fill-141" fill="#D4BE96"></path>
        <path d="M76.394,108.992 C78.876,103.591 80.005,101.54 80.268,96.41 C80.269,96.409 80.269,96.408 80.27,96.407 C80.009,101.544 78.878,103.588 76.394,108.992" id="Fill-142" fill="#CB7267"></path>
        <path d="M74.565,126.807 C73.4,119.677 74.532,113.354 75.94,109.999 L75.94,109.998 C75.946,109.985 75.951,109.972 75.957,109.959 C75.957,109.958 75.957,109.957 75.958,109.956 C75.96,109.95 75.963,109.944 75.965,109.938 C75.966,109.938 75.966,109.937 75.966,109.937 C75.969,109.93 75.971,109.924 75.974,109.918 L75.974,109.917 C75.977,109.911 75.98,109.905 75.982,109.899 C75.983,109.897 75.985,109.893 75.985,109.892 C75.987,109.888 75.988,109.885 75.989,109.882 C75.991,109.878 75.993,109.874 75.994,109.87 C75.995,109.869 75.996,109.867 75.996,109.866 C75.998,109.863 76,109.858 76.001,109.854 C76.002,109.852 76.003,109.85 76.004,109.848 C76.007,109.84 76.01,109.834 76.013,109.827 C76.014,109.825 76.015,109.823 76.016,109.821 C76.017,109.818 76.019,109.813 76.021,109.81 C76.022,109.808 76.022,109.806 76.023,109.805 C76.025,109.801 76.026,109.797 76.028,109.793 C76.029,109.791 76.03,109.788 76.031,109.786 C76.033,109.783 76.034,109.779 76.036,109.776 C76.036,109.775 76.036,109.775 76.036,109.774 C76.043,109.76 76.049,109.746 76.055,109.732 C76.056,109.73 76.057,109.729 76.057,109.727 C76.059,109.723 76.061,109.72 76.063,109.715 C76.063,109.714 76.064,109.712 76.065,109.71 C76.07,109.698 76.076,109.686 76.081,109.674 C76.082,109.671 76.084,109.668 76.085,109.665 C76.086,109.663 76.087,109.66 76.088,109.659 C76.09,109.655 76.092,109.65 76.093,109.647 C76.094,109.645 76.095,109.643 76.096,109.641 C76.099,109.635 76.101,109.63 76.104,109.624 C76.202,109.408 76.299,109.197 76.394,108.992 C78.878,103.588 80.009,101.544 80.27,96.407 C80.925,95.685 81.53,95.099 82.063,94.677 C87.683,90.227 88.809,65.792 88.809,65.792 C88.809,65.792 94.635,66.007 102.914,74.746 C104.267,76.173 105.472,77.515 106.534,78.773 C103.737,80.679 102.21,83.251 102.119,83.405 C101.864,83.843 102.013,84.405 102.45,84.661 C102.596,84.747 102.755,84.787 102.914,84.787 C103.23,84.787 103.537,84.624 103.709,84.332 C103.728,84.299 105.162,81.9 107.712,80.208 C112.21,85.857 113.536,89.666 112.114,91.917 C111.131,93.473 107.105,97.303 102.931,100.709 C101.509,101.131 100.106,101.713 98.706,102.496 C96.795,103.564 95.067,105.061 93.58,106.869 C89.409,108.022 83.594,110.626 81.297,114.455 C79.673,117.162 76.368,123.383 74.565,126.807" id="Fill-143" fill="#D4BE96"></path>
        <path d="M93.58,106.869 C95.067,105.061 96.795,103.564 98.706,102.496 C100.106,101.713 101.509,101.131 102.931,100.709 C99.291,103.68 95.538,106.329 93.594,106.865 C93.589,106.866 93.585,106.868 93.58,106.869" id="Fill-144" fill="#C3645F"></path>
        <path d="M102.914,84.787 C102.755,84.787 102.596,84.747 102.45,84.661 C102.013,84.405 101.864,83.843 102.119,83.405 C102.21,83.251 103.737,80.679 106.534,78.773 C106.948,79.264 107.341,79.742 107.712,80.208 C105.162,81.9 103.728,84.299 103.709,84.332 C103.537,84.624 103.23,84.787 102.914,84.787" id="Fill-145" fill="#474847"></path>
        <path d="M181.16,155.526 C181.162,155.299 181.17,155.075 181.185,154.854 C193.268,149.039 199.391,140.723 202.157,132.676 C202.241,132.649 202.324,132.623 202.404,132.599 C199.761,140.878 193.629,149.531 181.16,155.526" id="Fill-146" fill="#CB7267"></path>
        <path d="M181.185,154.854 C181.643,147.863 188.313,144.093 188.313,144.093 C190.681,137.08 198.477,133.842 202.157,132.676 C199.391,140.723 193.268,149.039 181.185,154.854" id="Fill-147" fill="#D4BE96"></path>
        <path d="M203.63,127.468 C203.602,127.415 203.574,127.361 203.545,127.307 C203.923,125.181 204.094,123.119 204.112,121.182 C204.129,123.159 203.988,125.276 203.63,127.468" id="Fill-148" fill="#CB7267"></path>
        <path d="M203.545,127.307 C201.725,123.853 198.497,117.781 196.898,115.116 C195.035,112.011 190.857,109.711 187.12,108.337 C185.409,105.867 183.292,103.842 180.885,102.496 C178.52,101.174 176.144,100.422 173.684,100.055 C170.115,97.027 166.939,93.936 166.082,92.579 C164.577,90.197 166.148,86.072 171.297,79.869 C174.185,81.558 175.823,84.297 175.844,84.332 C176.015,84.624 176.323,84.787 176.639,84.787 C176.797,84.787 176.956,84.747 177.102,84.661 C177.54,84.405 177.688,83.843 177.433,83.405 C177.337,83.241 175.631,80.368 172.511,78.444 C173.354,77.478 174.277,76.466 175.28,75.407 C183.559,66.668 189.386,66.453 189.386,66.453 C189.386,66.453 190.511,90.888 196.132,95.338 C196.666,95.761 197.272,96.348 197.927,97.071 C198.2,102.396 199.406,104.404 202.091,110.285 C203.134,112.569 204.07,116.482 204.112,121.182 C204.094,123.119 203.923,125.181 203.545,127.307" id="Fill-149" fill="#D4BE96"></path>
        <path d="M187.12,108.337 C186.244,108.016 185.393,107.745 184.601,107.526 C182.374,106.912 177.771,103.524 173.684,100.055 C176.144,100.422 178.52,101.174 180.885,102.496 C183.292,103.842 185.409,105.867 187.12,108.337" id="Fill-150" fill="#C3645F"></path>
        <path d="M176.639,84.787 C176.323,84.787 176.015,84.624 175.844,84.332 C175.823,84.297 174.185,81.558 171.297,79.869 C171.682,79.406 172.087,78.931 172.511,78.444 C175.631,80.368 177.337,83.241 177.433,83.405 C177.688,83.843 177.54,84.405 177.102,84.661 C176.956,84.747 176.797,84.787 176.639,84.787" id="Fill-151" fill="#474847"></path>
        <path d="M154.659,115.145 C157.054,114.974 157.031,105.776 156.862,101.07 C152.462,101.689 147.579,102.322 142.01,102.464 C142.01,105.827 142.01,113.537 142.01,115.145 C142.01,117.215 151.439,115.375 154.659,115.145" id="Fill-152" fill="#E5E6E3"></path>
        <path d="M89.095,145.938 C89.095,145.938 84.056,131.858 67.498,133.084 C67.498,133.084 76.402,122.328 80.383,112.209 C80.383,112.209 91.458,104.002 89.095,93.577 C86.731,83.151 71.831,84.045 65.611,93.577 C65.611,93.577 29.544,113.989 33.273,140.543 C37.002,167.096 79.568,186.414 85.031,190.265 C92.388,195.451 108.238,153.604 89.095,145.938" id="Fill-153" fill="#F4DAAD"></path>
        <path d="M67.958,86.089 C68.418,82.388 66.4,79.629 74.079,72.96 C81.757,66.29 86.586,64.023 91.876,67.227 C97.165,70.43 113.034,84.458 109.814,90.668 C106.594,96.877 97.165,103.776 92.566,104.926 C87.966,106.076 84.465,108.659 82.424,110.434 C80.383,112.209 65.611,93.577 65.611,93.577 C65.611,93.577 67.498,89.79 67.958,86.089 Z" id="Fill-154" fill="#F4DAAD"></path>
        <path d="M212.886,93.577 C212.886,93.577 210.999,89.79 210.539,86.089 C210.079,82.388 212.097,79.629 204.419,72.96 C196.741,66.29 191.911,64.023 186.622,67.227 C181.333,70.43 165.464,84.458 168.684,90.668 C171.904,96.877 181.333,103.776 185.932,104.926 C190.531,106.076 194.032,108.659 196.074,110.434 C197.258,111.573 198.115,112.209 198.115,112.209 C202.096,122.328 210.999,133.085 210.999,133.085 C194.441,131.858 189.403,145.938 189.403,145.938 C170.26,153.604 186.11,195.451 193.467,190.265 C198.929,186.414 241.496,167.096 245.225,140.543 C248.954,113.989 212.886,93.577 212.886,93.577" id="Fill-155" fill="#F4DAAD"></path>
        <path d="M189.403,93.577 C187.696,101.105 192.995,107.474 196.074,110.434 C198.115,112.209 212.886,93.577 212.886,93.577 C206.667,84.045 191.767,83.151 189.403,93.577" id="Fill-156" fill="#F4DAAD"></path>
        <path d="M245.437,138.399 C245.469,137.868 245.492,137.339 245.494,136.814 C245.366,136.956 245.333,137.462 245.437,138.399" id="Fill-157" fill="#EEBB88"></path>
        <path d="M210.083,176.548 C194.663,181.812 187.199,166.601 187.199,166.601 C194.875,177.58 193.467,190.265 193.467,190.265 C198.772,186.525 239.073,168.195 244.805,142.817 C241.287,153.39 223.454,171.984 210.083,176.548 Z" id="Fill-158" fill="#EEBB88"></path>
        <path d="M32.937,138.399 C32.904,137.868 32.882,137.339 32.879,136.814 C33.008,136.956 33.041,137.462 32.937,138.399" id="Fill-159" fill="#EEBB88"></path>
        <path d="M33.569,142.817 C37.087,153.39 54.587,171.524 67.958,176.088 C83.379,181.352 91.175,166.601 91.175,166.601 C83.498,177.58 84.907,190.265 84.907,190.265 C79.602,186.525 39.301,168.195 33.569,142.817" id="Fill-160" fill="#EEBB88"></path>
        <path d="M68.999,60.206 C68.999,60.206 54.69,49.237 41.202,52.164 C27.715,55.092 31.414,72.559 43.361,69.74 C55.308,66.921 68.999,60.206 68.999,60.206" id="Fill-161" fill="#36A1CE"></path>
        <path d="M46.018,55.648 C46.395,57.044 44.758,58.699 42.362,59.346 C39.965,59.993 37.717,59.386 37.341,57.991 C36.964,56.595 38.601,54.939 40.997,54.292 C43.394,53.645 45.642,54.252 46.018,55.648" id="Fill-162" fill="#78C9E6"></path>
        <path d="M37.287,78.032 C37.287,78.032 16.53,76.936 15.262,85.729 C13.995,94.523 25.403,93.63 27.899,90.52 C30.394,87.411 37.287,78.032 37.287,78.032" id="Fill-163" fill="#36A1CE"></path>
        <path d="M23.291,83.048 C23.921,83.926 23.211,85.514 21.705,86.596 C20.198,87.678 18.466,87.844 17.836,86.967 C17.206,86.089 17.916,84.501 19.422,83.419 C20.929,82.337 22.661,82.171 23.291,83.048" id="Fill-164" fill="#78C9E6"></path>
        <path d="M64.467,75.074 C64.467,75.074 37.779,81.127 39.111,91.419 C40.444,101.711 53,97.128 54.833,92.846 C56.666,88.564 64.467,75.074 64.467,75.074" id="Fill-165" fill="#36A1CE"></path>
        <path d="M47.438,85.236 C48.373,85.999 48.068,87.919 46.757,89.524 C45.445,91.129 43.625,91.811 42.69,91.048 C41.755,90.284 42.06,88.364 43.371,86.759 C44.683,85.154 46.503,84.472 47.438,85.236" id="Fill-166" fill="#78C9E6"></path>
        <path d="M210.362,60.206 C210.362,60.206 224.67,49.237 238.158,52.164 C251.646,55.092 247.947,72.559 235.999,69.74 C224.052,66.921 210.362,60.206 210.362,60.206" id="Fill-167" fill="#36A1CE"></path>
        <path d="M233.342,55.648 C232.965,57.044 234.602,58.699 236.998,59.346 C239.395,59.993 241.643,59.386 242.02,57.991 C242.396,56.595 240.759,54.939 238.363,54.292 C235.967,53.645 233.719,54.252 233.342,55.648" id="Fill-168" fill="#78C9E6"></path>
        <path d="M242.073,78.032 C242.073,78.032 262.83,76.936 264.098,85.729 C265.365,94.523 253.957,93.63 251.461,90.52 C248.966,87.411 242.073,78.032 242.073,78.032" id="Fill-169" fill="#36A1CE"></path>
        <path d="M256.069,83.048 C255.439,83.926 256.149,85.514 257.655,86.596 C259.162,87.678 260.894,87.844 261.524,86.967 C262.154,86.089 261.444,84.501 259.938,83.419 C258.431,82.337 256.699,82.171 256.069,83.048" id="Fill-170" fill="#78C9E6"></path>
        <path d="M214.893,75.074 C214.893,75.074 241.581,81.127 240.249,91.419 C238.917,101.711 226.36,97.128 224.527,92.846 C222.694,88.564 214.893,75.074 214.893,75.074" id="Fill-171" fill="#36A1CE"></path>
        <path d="M231.922,85.236 C230.987,85.999 231.292,87.919 232.604,89.524 C233.915,91.129 235.735,91.811 236.67,91.048 C237.605,90.284 237.3,88.364 235.989,86.759 C234.678,85.154 232.857,84.472 231.922,85.236" id="Fill-172" fill="#78C9E6"></path>
    </g>
</svg>